<svg xmlns="http://www.w3.org/2000/svg" viewBox="0 0 254.02 337.55"><defs><style>.cls-1{fill:#ffd300;}.cls-2{fill:#0049a8;}</style></defs><title>iconmarketAsset 3</title><g id="Layer_2" data-name="Layer 2"><g id="Layer_3" data-name="Layer 3"><path class="cls-1" d="M254,331.34q0-154.09,0-308.17c0-6.84,0-13.68-.08-20.52,0-2.12-.52-2.65-2.3-2.65q-48.93,0-97.87.06Q78.87.09,4,.08c-4,0-4,0-4,4V168.92H0V298.19C0,310.58,0,323,0,335.37c0,1.48.5,2.18,2,2.12,1-.05,2,0,3,0l234,0c4.21,0,8.42,0,12.63.05a1.8,1.8,0,0,0,2-1.38C254.22,334.57,254,332.94,254,331.34ZM222.69,166c0,9.11-.21,18.22-.09,27.33.19,13.74.12,27.47.09,41.21,0,8.53-.21,17.07-.09,25.6.14,9.82.12,19.64.08,29.46,0,4.91-.11,9.81-.18,14.72,0,2.36-.06,2.36-2.48,2.36H126c-2.92,0-5.85.05-8.77,0-3.42,0-4.08-1.22-3-4.54a40,40,0,0,1,7.84-13.75,29.17,29.17,0,0,0,3.58-4.26A192.47,192.47,0,0,1,140,269.67c10.46-9.93,21.48-19.26,31.5-29.66,3.63-3.76,7-7.64,9-12.56,3.3-8-.11-16.28-7.32-20.41a48.3,48.3,0,0,0-14.33-5c-5.55-1.16-11.09-2.35-16.68-3.27-2.74-.45-5.56-.26-8.32-.87-5.92-1.31-12-1.6-18-2.33-3.24-.39-6.59-.67-9.7-1.87a6.61,6.61,0,0,1-3.76-2.78c-1.76-2.42-1.05-4.83,0-7.25a35.38,35.38,0,0,1,2.82-4.79c2.32-3.75,5.59-6.68,8.61-9.83,9.15-9.55,19.64-17.62,29.26-26.66,11.33-10.66,23.29-20.69,33.76-32.27,2.42-2.68,4.64-5.55,6.95-8.34A15.22,15.22,0,0,0,187,92.45c-.06-1.74,0-3.48,0-5.23,0-.57.1-1.17-.36-1.65-1.78-5.52-4.95-9.86-10.44-12.19a10.94,10.94,0,0,0-4.31-1.13c-7.7,0-15.4,0-23.1,0q-33.7,0-67.41-.07l-.7,0c-1.68,1.19-2.31,3.12-3.25,4.79-3.79,6.71-7.47,13.48-11.5,20-1.91,3.1-1.54,3.8,2.21,3.83,6.61,0,13.21,0,19.82,0h50.69a9.58,9.58,0,0,1,3.81.28c2,.83,2.42,3.08,1.11,5.33a28,28,0,0,1-6.27,6.85c-4.48,3.88-9.1,7.6-13.62,11.44-8.25,7-15.93,14.65-24,21.83-6.54,5.8-13,11.71-18.91,18.13-5.28,5.72-10.43,11.55-14.41,18.29-3.56,6-6.4,12.23-6,19.46a18.61,18.61,0,0,0,6,12.82c4.21,4,9.39,5.81,14.92,7.14,7.2,1.74,14.58,2.32,21.84,3.67,4.86.89,9.69,2,14.61,2.64a15.73,15.73,0,0,1,2.19.58l6.32,1.43h0l3.51,1.41a4.08,4.08,0,0,1,2.14,2,3.9,3.9,0,0,1-.12,5.2c-.29.39-.27.89-.57,1.26h0c-2.68,4.08-6.43,7.14-9.85,10.53-3.72,3.68-7.8,6.94-11.73,10.39A139.59,139.59,0,0,0,86.85,287a43.11,43.11,0,0,0-7.57,18c-.1.64-.62,1-.73,1.54a3.13,3.13,0,0,1-2.46.67c-9.27,0-18.55.16-27.82-.07-4.43-.1-8.84.35-13.26.07-1-.06-2,.12-2.68-.9a.33.33,0,0,0,0-.29l-.37-.87a10.06,10.06,0,0,1,0-1.82v0q0-15.56,0-31.13,0-64.58,0-129.14,0-53.79,0-107.59c0-.54,0-1.07,0-1.61V33l.36-.81c.55-1.11,1.62-.77,2.46-.77,60.33.3,120.66.08,181,.09,1.57,0,3.15,0,4.73-.06s2.07.48,2.07,2c0,6.19.16,12.38.16,18.58q0,36.46,0,72.94c0,5.26-.15,10.52-.14,15.78C222.58,149.16,222.69,157.57,222.69,166Z"/><path class="cls-2" d="M222.69,234.53c0,8.53-.21,17.07-.09,25.6.14,9.82.12,19.64.08,29.46,0,4.91-.11,9.81-.18,14.72,0,2.36-.06,2.36-2.48,2.36H126c-2.92,0-5.85.05-8.77,0-3.42,0-4.08-1.22-3-4.54a40,40,0,0,1,7.84-13.75,29.17,29.17,0,0,0,3.58-4.26A192.47,192.47,0,0,1,140,269.67c10.46-9.93,21.48-19.26,31.5-29.66,3.63-3.76,7-7.64,9-12.56,3.3-8-.11-16.28-7.32-20.41a48.3,48.3,0,0,0-14.33-5c-5.55-1.16-11.09-2.35-16.68-3.27-2.74-.45-5.56-.26-8.32-.87-5.92-1.31-12-1.6-18-2.33-3.24-.39-6.59-.67-9.7-1.87a6.61,6.61,0,0,1-3.76-2.78c-1.76-2.42-1.05-4.83,0-7.25a35.38,35.38,0,0,1,2.82-4.79c2.32-3.75,5.59-6.68,8.61-9.83,9.15-9.55,19.64-17.62,29.26-26.66,11.33-10.66,23.29-20.69,33.76-32.27,2.42-2.68,4.64-5.55,6.95-8.34A15.22,15.22,0,0,0,187,92.45c-.06-1.74,0-3.48,0-5.23,0-.57.1-1.17-.36-1.65-1.78-5.52-4.95-9.86-10.44-12.19a10.94,10.94,0,0,0-4.31-1.13c-7.7,0-15.4,0-23.1,0q-33.7,0-67.41-.07l-.7,0c-1.68,1.19-2.31,3.12-3.25,4.79-3.79,6.71-7.47,13.48-11.5,20-1.91,3.1-1.54,3.8,2.21,3.83,6.61,0,13.21,0,19.82,0h50.69a9.58,9.58,0,0,1,3.81.28c2,.83,2.42,3.08,1.11,5.33a28,28,0,0,1-6.27,6.85c-4.48,3.88-9.1,7.6-13.62,11.44-8.25,7-15.93,14.65-24,21.83-6.54,5.8-13,11.71-18.91,18.13-5.28,5.72-10.43,11.55-14.41,18.29-3.56,6-6.4,12.23-6,19.46a18.61,18.61,0,0,0,6,12.82c4.21,4,9.39,5.81,14.92,7.14,7.2,1.74,14.58,2.32,21.84,3.67,4.86.89,9.69,2,14.61,2.64a15.73,15.73,0,0,1,2.19.58l6.32,1.43h0l3.51,1.41a4.08,4.08,0,0,1,2.14,2,3.9,3.9,0,0,1-.12,5.2c-.29.39-.27.89-.57,1.26h0c-2.68,4.08-6.43,7.14-9.85,10.53-3.72,3.68-7.8,6.94-11.73,10.39A139.59,139.59,0,0,0,86.85,287a43.11,43.11,0,0,0-7.57,18c-.1.64-.62,1-.73,1.54a3.13,3.13,0,0,1-2.46.67c-9.27,0-18.55.16-27.82-.07-4.43-.1-8.84.35-13.26.07-1-.06-2,.12-2.68-.9a.33.33,0,0,0,0-.29l-.37-.87a10.06,10.06,0,0,1,0-1.82V33.82l.36-1.65c.55-1.11,1.62-.77,2.46-.77,60.33.3,120.66.08,181,.09,1.57,0,3.15,0,4.73-.06s2.07.48,2.07,2c0,6.19.16,12.38.16,18.58q0,36.46,0,72.94c0,5.26-.15,10.52-.14,15.78,0,8.42.11,16.83.11,25.25,0,9.11-.21,18.22-.09,27.33C222.79,207.06,222.72,220.79,222.69,234.53Z"/></g></g></svg>