<svg xmlns="http://www.w3.org/2000/svg" viewBox="0 0 1000 1000"><defs><style>.cls-1{fill:#fff;}</style></defs><title>insta tiendaAsset 7</title><g id="Layer_2" data-name="Layer 2"><g id="Layer_1-2" data-name="Layer 1"><path class="cls-1" d="M635.08,242.19H364.92A122.9,122.9,0,0,0,242.19,364.92V635.08A122.9,122.9,0,0,0,364.92,757.81H635.08A122.9,122.9,0,0,0,757.81,635.08V364.92A122.9,122.9,0,0,0,635.08,242.19ZM500,660.55c-88.52,0-160.55-72-160.55-160.55s72-160.55,160.55-160.55,160.55,72,160.55,160.55S588.52,660.55,500,660.55ZM664.92,372.27a37.52,37.52,0,1,1,37.54-37.54A37.52,37.52,0,0,1,664.92,372.27ZM500,394.14A105.86,105.86,0,1,0,605.86,500,106,106,0,0,0,500,394.14ZM500,0C223.87,0,0,223.87,0,500s223.87,500,500,500,500-223.87,500-500S776.13,0,500,0ZM812.5,635.08c0,97.81-79.61,177.42-177.42,177.42H364.92c-97.81,0-177.42-79.61-177.42-177.42V364.92c0-97.81,79.61-177.42,177.42-177.42H635.08c97.81,0,177.42,79.61,177.42,177.42Z"/></g></g></svg>