<svg xmlns="http://www.w3.org/2000/svg" viewBox="0 0 713.92 337.55"><defs><style>.cls-1{fill:none;}.cls-2{fill:#ffd300;}.cls-3{fill:#0049a8;}.cls-4{fill:#fdcd00;}.cls-5{fill:#0049a7;}.cls-6{fill:#957a13;}.cls-7{fill:#d2b751;}.cls-8{fill:#365390;}</style></defs><title>logo-marketAsset 1</title><g id="Layer_2" data-name="Layer 2"><g id="Layer_1-2" data-name="Layer 1"><path class="cls-1" d="M32.3,32.17a4.58,4.58,0,0,0-.36,1.65m0,269.47q0-80.13,0-160.27M32.3,32.17a4.58,4.58,0,0,0-.36,1.65m0,109.2q0,64.57,0,129.14,0,15.55,0,31.13Q31.92,223.16,31.93,143Zm0-107.59V33.82C31.91,34.36,31.94,34.89,31.94,35.43Zm0-2.45v.84l.36-1.65Zm0,0v.84l.36-1.65Zm0,.84.36-1.65A4.58,4.58,0,0,0,31.94,33.82Z"/><path class="cls-2" d="M254,331.34q0-154.09,0-308.17c0-6.84,0-13.68-.08-20.52,0-2.12-.52-2.65-2.3-2.65q-48.93,0-97.87.06Q78.87.09,4,.08c-4,0-4,0-4,4V168.92H0V298.19C0,310.58,0,323,0,335.37c0,1.48.5,2.18,2,2.12,1-.05,2,0,3,0l234,0c4.21,0,8.42,0,12.63.05a1.8,1.8,0,0,0,2-1.38C254.22,334.57,254,332.94,254,331.34ZM222.69,166c0,9.11-.21,18.22-.09,27.33.19,13.74.12,27.47.09,41.21,0,8.53-.21,17.07-.09,25.6.14,9.82.12,19.64.08,29.46,0,4.91-.11,9.81-.18,14.72,0,2.36-.06,2.36-2.48,2.36H126c-2.92,0-5.85.05-8.77,0-3.42,0-4.08-1.22-3-4.54a40,40,0,0,1,7.84-13.75,29.17,29.17,0,0,0,3.58-4.26A192.47,192.47,0,0,1,140,269.67c10.46-9.93,21.48-19.26,31.5-29.66,3.63-3.76,7-7.64,9-12.56,3.3-8-.11-16.28-7.32-20.41a48.3,48.3,0,0,0-14.33-5c-5.55-1.16-11.09-2.35-16.68-3.27-2.74-.45-5.56-.26-8.32-.87-5.92-1.31-12-1.6-18-2.33-3.24-.39-6.59-.67-9.7-1.87a6.61,6.61,0,0,1-3.76-2.78c-1.76-2.42-1.05-4.83,0-7.25a35.38,35.38,0,0,1,2.82-4.79c2.32-3.75,5.59-6.68,8.61-9.83,9.15-9.55,19.64-17.62,29.26-26.66,11.33-10.66,23.29-20.69,33.76-32.27,2.42-2.68,4.64-5.55,6.95-8.34A15.22,15.22,0,0,0,187,92.45c-.06-1.74,0-3.48,0-5.23,0-.57.1-1.17-.36-1.65-1.78-5.52-4.95-9.86-10.44-12.19a10.94,10.94,0,0,0-4.31-1.13c-7.7,0-15.4,0-23.1,0q-33.7,0-67.41-.07l-.7,0c-1.68,1.19-2.31,3.12-3.25,4.79-3.79,6.71-7.47,13.48-11.5,20-1.91,3.1-1.54,3.8,2.21,3.83,6.61,0,13.21,0,19.82,0h50.69a9.58,9.58,0,0,1,3.81.28c2,.83,2.42,3.08,1.11,5.33a28,28,0,0,1-6.27,6.85c-4.48,3.88-9.1,7.6-13.62,11.44-8.25,7-15.93,14.65-24,21.83-6.54,5.8-13,11.71-18.91,18.13-5.28,5.72-10.43,11.55-14.41,18.29-3.56,6-6.4,12.23-6,19.46a18.61,18.61,0,0,0,6,12.82c4.21,4,9.39,5.81,14.92,7.14,7.2,1.74,14.58,2.32,21.84,3.67,4.86.89,9.69,2,14.61,2.64a15.73,15.73,0,0,1,2.19.58l6.32,1.43h0l3.51,1.41a4.08,4.08,0,0,1,2.14,2,3.9,3.9,0,0,1-.12,5.2c-.29.39-.27.89-.57,1.26h0c-2.68,4.08-6.43,7.14-9.85,10.53-3.72,3.68-7.8,6.94-11.73,10.39A139.59,139.59,0,0,0,86.85,287a43.11,43.11,0,0,0-7.57,18c-.1.64-.62,1-.73,1.54a3.13,3.13,0,0,1-2.46.67c-9.27,0-18.55.16-27.82-.07-4.43-.1-8.84.35-13.26.07-1-.06-2,.12-2.68-.9a.33.33,0,0,0,0-.29l-.37-.87a10.06,10.06,0,0,1,0-1.82v0q0-15.56,0-31.13,0-64.58,0-129.14,0-53.79,0-107.59c0-.54,0-1.07,0-1.61V33l.36-.81c.55-1.11,1.62-.77,2.46-.77,60.33.3,120.66.08,181,.09,1.57,0,3.15,0,4.73-.06s2.07.48,2.07,2c0,6.19.16,12.38.16,18.58q0,36.46,0,72.94c0,5.26-.15,10.52-.14,15.78C222.58,149.16,222.69,157.57,222.69,166Z"/><path class="cls-3" d="M222.69,234.53c0,8.53-.21,17.07-.09,25.6.14,9.82.12,19.64.08,29.46,0,4.91-.11,9.81-.18,14.72,0,2.36-.06,2.36-2.48,2.36H126c-2.92,0-5.85.05-8.77,0-3.42,0-4.08-1.22-3-4.54a40,40,0,0,1,7.84-13.75,29.17,29.17,0,0,0,3.58-4.26A192.47,192.47,0,0,1,140,269.67c10.46-9.93,21.48-19.26,31.5-29.66,3.63-3.76,7-7.64,9-12.56,3.3-8-.11-16.28-7.32-20.41a48.3,48.3,0,0,0-14.33-5c-5.55-1.16-11.09-2.35-16.68-3.27-2.74-.45-5.56-.26-8.32-.87-5.92-1.31-12-1.6-18-2.33-3.24-.39-6.59-.67-9.7-1.87a6.61,6.61,0,0,1-3.76-2.78c-1.76-2.42-1.05-4.83,0-7.25a35.38,35.38,0,0,1,2.82-4.79c2.32-3.75,5.59-6.68,8.61-9.83,9.15-9.55,19.64-17.62,29.26-26.66,11.33-10.66,23.29-20.69,33.76-32.27,2.42-2.68,4.64-5.55,6.95-8.34A15.22,15.22,0,0,0,187,92.45c-.06-1.74,0-3.48,0-5.23,0-.57.1-1.17-.36-1.65-1.78-5.52-4.95-9.86-10.44-12.19a10.94,10.94,0,0,0-4.31-1.13c-7.7,0-15.4,0-23.1,0q-33.7,0-67.41-.07l-.7,0c-1.68,1.19-2.31,3.12-3.25,4.79-3.79,6.71-7.47,13.48-11.5,20-1.91,3.1-1.54,3.8,2.21,3.83,6.61,0,13.21,0,19.82,0h50.69a9.58,9.58,0,0,1,3.81.28c2,.83,2.42,3.08,1.11,5.33a28,28,0,0,1-6.27,6.85c-4.48,3.88-9.1,7.6-13.62,11.44-8.25,7-15.93,14.65-24,21.83-6.54,5.8-13,11.71-18.91,18.13-5.28,5.72-10.43,11.55-14.41,18.29-3.56,6-6.4,12.23-6,19.46a18.61,18.61,0,0,0,6,12.82c4.21,4,9.39,5.81,14.92,7.14,7.2,1.74,14.58,2.32,21.84,3.67,4.86.89,9.69,2,14.61,2.64a15.73,15.73,0,0,1,2.19.58l6.32,1.43h0l3.51,1.41a4.08,4.08,0,0,1,2.14,2,3.9,3.9,0,0,1-.12,5.2c-.29.39-.27.89-.57,1.26h0c-2.68,4.08-6.43,7.14-9.85,10.53-3.72,3.68-7.8,6.94-11.73,10.39A139.59,139.59,0,0,0,86.85,287a43.11,43.11,0,0,0-7.57,18c-.1.64-.62,1-.73,1.54a3.13,3.13,0,0,1-2.46.67c-9.27,0-18.55.16-27.82-.07-4.43-.1-8.84.35-13.26.07-1-.06-2,.12-2.68-.9a.33.33,0,0,0,0-.29l-.37-.87a10.06,10.06,0,0,1,0-1.82V33.82l.36-1.65c.55-1.11,1.62-.77,2.46-.77,60.33.3,120.66.08,181,.09,1.57,0,3.15,0,4.73-.06s2.07.48,2.07,2c0,6.19.16,12.38.16,18.58q0,36.46,0,72.94c0,5.26-.15,10.52-.14,15.78,0,8.42.11,16.83.11,25.25,0,9.11-.21,18.22-.09,27.33C222.79,207.06,222.72,220.79,222.69,234.53Z"/><path class="cls-4" d="M31.94,35.43V303.29q0-80.13,0-160.27Q31.93,89.23,31.94,35.43Z"/><path class="cls-4" d="M32.3,32.17a4.58,4.58,0,0,0-.36,1.65V33Z"/><path class="cls-3" d="M612,57.51c-2.86,0-5.72-.24-8.58,0h0c-3.66,0-7.32,0-11-.11a2.72,2.72,0,0,0-3,2.08c-1.33,3.43-2.84,6.79-4,10.26-1,2.86-2.53,5.5-3.16,8.48-.44,1-.93,1.88-1.32,2.85-4.35,10.86-9.13,21.54-12.94,32.61a16.53,16.53,0,0,0-1.08,2.7c-.56,1.32-.62,2.81-1.36,4.07a12.62,12.62,0,0,1-.22-2.38c0-2.94-.68-5.82-.85-8.74,0-.42,0-.85,0-1.27-.46-6.53-1.15-13-1.35-19.58-.29-9.88-1.05-19.71-1.83-29.56-.09-1.18-.55-1.62-1.73-1.61-6.9.06-13.79,0-20.69.11-2.74,0-2.74.08-2.21,2.65,0,.17.05.34.07.52.71,5.61,1.38,11.24,2.13,16.85.52,3.92.72,7.89,1.72,11.74a5.17,5.17,0,0,0,0,.88c1.3,7.64,2,15.37,3.1,23,1.41,9.81,2.22,19.71,3.65,29.51.74,5.1,1,10-1.22,14.72-.09.18-.18.37-.28.55a12.84,12.84,0,0,1-9.66,7.49,37.29,37.29,0,0,1-8.68.56c-.69,0-1.44-.25-1.64.78-.82,4.17-2.06,8.26-2.46,12.51-.43.55-.21,1.24-.38,1.85-.41,1.52.13,2.16,1.71,2.17,1.86,0,3.73.15,5.59.2.8,0,1.19.18.91,1.14-1.27,4.25-1.62,8.69-2.49,13-2.16,10.69-3.89,21.45-5.93,32.16-1.59,8.3-3.38,16.55-4.6,24.92.15-.26.31-.49.52-.51a.64.64,0,0,1,.47.17l-.54.18-.45.16a13.4,13.4,0,0,0-.45,1.49c-1.75,9.57-3.42,19.15-5.48,28.66-.3,1.36,0,1.89,1.49,2,6.59.36,13.19.09,19.78.15,1.22,0,1.74-.56,1.85-1.79a34.86,34.86,0,0,1,.84-5.88,164.78,164.78,0,0,0,3.61-18.35c.66-4.38,2.25-7.87,5.66-10.59a2.38,2.38,0,0,0,.4-.53h0c1.39-1,1.82-.09,2.09,1.11,1.08,4.66,2.57,9.19,3.92,13.77,1.91,6.47,3.86,12.94,5.73,19.42.77,2.68.69,2.76,3.43,2.79,6.35.07,12.72.07,19.08.08.69,0,1.39-.17,2.08-.2.94,0,1.25-.44.91-1.33-1.1-2.88-1.88-5.87-3.19-8.67l-.22.21-.19.18c-.07-.23,0-.36.08-.4a.53.53,0,0,1,.33,0c-1.15-3.54-2.29-7.09-3.46-10.63-3-9.23-6.13-18.45-9-27.72-.54-1.75-1.68-3.24-1.88-5.09a4.94,4.94,0,0,0,1.63-1.52c9.76-10.94,19.43-22,29.41-32.71.34-.36,1-.67.75-1.25s-1-.27-1.43-.25c-6.6.38-13.21.33-19.81.24-2.44,0-4,.68-5.06,2.81a7.51,7.51,0,0,0-.79.69c-7.74,9.06-15.55,18.06-23,27.36-.73.23-.88,1.24-1.88,1.35a7,7,0,0,0,.51-3.41c.52-.32.52-.91.59-1.39.78-5.64,2.44-11.11,3.19-16.74.36-2.76,1.63-5.35,1.47-8.19a.25.25,0,0,1-.19.13c-.07,0-.13,0-.19-.14h.38c.14-.61-.16-1.29.32-1.83l.18-1,.54-2.84a6.13,6.13,0,0,0,.31-.81c1.06-5.2,1.91-10.44,3-15.63a15.54,15.54,0,0,1,3.58-7.22,73.74,73.74,0,0,0,10.62-16.62c5.24-10.77,10.1-21.7,15-32.62,6.32-14.12,12.49-28.31,18.79-42.45,3.06-6.86,5.81-13.87,9.15-20.61C613,58,613,57.51,612,57.51ZM565.55,233.33h0Z"/><path class="cls-3" d="M519.18,254.34l-.54.18c0-.11.05-.21.07-.32v0A.64.64,0,0,1,519.18,254.34Z"/><path class="cls-3" d="M579.73,277l-.19.18c-.07-.23,0-.36.08-.4A1.13,1.13,0,0,0,579.73,277Z"/><path class="cls-3" d="M551,200.32v.13c-.07,0-.13,0-.19-.14Z"/><path class="cls-3" d="M369.37,40.85c-.47-1.07-1.35-1.91-1.66-3.05a16.19,16.19,0,0,0-1.11-1.56c-4.51-5.14-10.42-7.5-17-8.5a76,76,0,0,0-9.78-.55c-11.87-.23-23.73,0-35.6-.08-1.2,0-1.65.49-1.91,1.71-1.72,8.17-3.08,16.4-4.54,24.61-1.83,10.22-3.77,20.42-5.53,30.66-2,11.84-4.33,23.64-6.48,35.47-1.79,9.87-3.3,19.8-5.52,29.59-.37,1.63.16,2.08,1.71,2.07q10.95-.08,21.92,0c1.16,0,1.55-.42,1.79-1.55.89-4.35,1.58-8.72,2.33-13.1,1.15-6.78,2.44-13.53,3.64-20.3.65-3.62,1.14-7.26,1.86-10.87.4-2,1.39-2.55,3.23-2.5,3.74.1,7.48.15,11.22.11a49.33,49.33,0,0,0,19.82-3.83c12.41-5.52,19.44-15.38,22.73-28.26.62-3.54,1.18-7.1,1.64-10.67A36.19,36.19,0,0,0,369.37,40.85ZM344,74.24a16.93,16.93,0,0,1-6.75,7.39,14.05,14.05,0,0,1-5.71,1.51,88.53,88.53,0,0,1-12.08.25,3.2,3.2,0,0,1-1.89-.4c.79-1.55.76-3.27,1.05-4.93q2.31-12.82,4.57-25.67c.26-1.49.48-3,.79-4.47.25-1.19.73-1.67,2-1.65,3.38,0,6.78-.15,10.16,0,6.69.34,12,3.69,11.67,12.06A40.28,40.28,0,0,1,344,74.24Z"/><path class="cls-3" d="M527.67,65.22l-1.43-2.12c-.36-.45-.69-.94-1.09-1.35-3.44-3.56-7.87-5.22-12.57-6a50.5,50.5,0,0,0-28.14,3A29,29,0,0,0,469.37,72.2,36.41,36.41,0,0,0,464,85.71c-.15.75-.17,1.37.92,1.42,6.23.25,12.47.23,18.71.15.68,0,1.38-.19,1.48-1,.25-2.12,1.46-3.92,1.85-6,.17-.37.36-.73.5-1.11a12.36,12.36,0,0,1,14.72-7.67,7.11,7.11,0,0,1,5.43,6.24,25.76,25.76,0,0,1-.46,8.18c-.56,3.34-1.2,6.4-5.57,7.36a222.25,222.25,0,0,0-27.16,7.46A31.74,31.74,0,0,0,459.65,111c-6.51,8.3-8,17.87-6.89,28,.64,6,4.13,10,9.6,12.34a26.91,26.91,0,0,0,12.4,1.66c8.41-.51,15.69-3.35,20.93-10.37.57-.76.73-1.92,1.81-2.4a3.38,3.38,0,0,1-.09,2.17,32.51,32.51,0,0,0-.93,6.58c-.17,1.59.37,2.22,2,2.21,6.43-.05,12.85,0,19.28,0,1.09,0,1.42-.37,1.37-1.44a76.18,76.18,0,0,1,.8-14.31,4.05,4.05,0,0,0,.33-.78q1.46-7.92,2.88-15.84c1.19-6.66,2.21-13.36,3.62-20,1.49-7,2.7-14.1,3.53-21.22A20,20,0,0,0,527.67,65.22ZM503.27,106c-.53,5.12-1.92,10.08-2.69,15.15-.73,4.78-2.73,8.87-6.74,11.82a17.63,17.63,0,0,1-10.52,3.74,7.74,7.74,0,0,1-7.29-7.26c0-.7,0-1.4,0-2.1a21.67,21.67,0,0,1,3.82-12.69c1.71-2.67,4.47-4.1,7.3-5.2,4.83-1.89,9.86-3.23,14.84-4.68C503,104.48,503.4,104.72,503.27,106Z"/><path class="cls-3" d="M452.48,199.74c-3.45-2.26-7.36-3-11.43-3.52a45.31,45.31,0,0,0-23.17,3c-11.42,4.75-16.61,14.46-19.72,25.68-.32,1.16,0,1.78,1.32,1.79,5.61.06,11.22.16,16.83,0a1.78,1.78,0,0,0,1.9-1.6,31.66,31.66,0,0,1,3.49-8.73c2.59-4.23,10.68-7.79,16.31-2.47a3.92,3.92,0,0,1,1.33,2.57,39.69,39.69,0,0,1-.91,11.29c-.58,3-2.39,4.33-5.33,5.08-8,2-16,3.92-23.79,6.55-10.41,3.5-17,10.52-19.95,21a37,37,0,0,0-.89,14.43c.81,6.78,4.57,10.8,11.23,12.46a32.9,32.9,0,0,0,9.07.62,25,25,0,0,0,15.56-5.47c2.09-1.71,3.62-3.93,5.63-5.87a42.66,42.66,0,0,0-1,8.49c-.07,1.34.36,1.72,1.64,1.75q8.5.18,17,0c.24,0,.47,0,.7,0,.8,0,1.1-.29.92-1.2a14.06,14.06,0,0,1,.26-5.74c1.33-6.11,2.1-12.31,3.35-18.44,2.08-10.17,3.68-20.44,5.66-30.63a79.52,79.52,0,0,0,1.88-16.84A16.41,16.41,0,0,0,452.48,199.74Zm-16.93,43.54c-.54,1.19-.35,2.54-.85,3.73a.29.29,0,0,1,0,.31c-.06,3.52-1.17,6.86-1.75,10.28a19.78,19.78,0,0,1-2.57,7.89,9.3,9.3,0,0,1-2.68,2.9,13.87,13.87,0,0,1-13.24,4.09,5.89,5.89,0,0,1-4.45-4.84,21.18,21.18,0,0,1,3.49-15.14,6.78,6.78,0,0,1,1.91-2,13.12,13.12,0,0,1,4.88-2.9,47.22,47.22,0,0,1,8.77-2.75h0c1.87-.94,4.05-1,5.87-2.12C435.48,242.38,435.74,242.87,435.55,243.28Z"/><path class="cls-3" d="M613,229.92a.71.71,0,0,1,.25-.47Z"/><path class="cls-3" d="M712,197.56c-3.67.12-7.35.29-11,.05-1-.06-1.45-.16-1.26-1.42.83-5.72,2.31-11.3,3.26-17,.21-1.26.08-1.7-1.24-1.7q-9.81,0-19.63-.07a2,2,0,0,0-2.26,1.79c-1.47,5.53-1.92,11.27-3.61,16.76-.4,1.3-.85,1.67-2.1,1.62-2.39-.08-4.79,0-7.19,0-.88,0-1.8.12-1.87,1.35a50.94,50.94,0,0,1-1.59,8.76c-.36,1.53-.61,3.08-.91,4.61s.41,1.74,1.63,1.76a80,80,0,0,1,8.89.32l.16,0,.27,0q-.09.18-.21.18a.31.31,0,0,1-.22-.11l-3.79,20.69c.18.73-.31,1.35-.32,2a3.53,3.53,0,0,0-.26.65c-2,11-4.12,21.94-6,33-.52,3.09-.82,6.38.92,9.35a12.32,12.32,0,0,0,9.41,7.59,51.08,51.08,0,0,0,21.55-1,2.82,2.82,0,0,0,2.31-2.87,91.27,91.27,0,0,1,1.64-10.52c.25-1.25,1.39-2.82.53-3.69s-2.57-.18-3.9-.22c-2.31-.08-4.69.57-6.86-.73-1-1.42-2.82-2.49-2-4.67,2-5.71,2.42-11.76,3.57-17.65,1.9-9.73,3.72-19.48,5.6-29.21.58-3,.64-3,3.78-3,3.39,0,6.78,0,10.17-.08.8,0,1.52,0,1.73-1.19.76-4.42,1.66-8.82,2.53-13.21C714.13,197.68,714,197.5,712,197.56Zm-48.37,11.08c-.17-.23-.08-.51-.11-.77.06.22.11.43.16.65l.06.23A.38.38,0,0,1,663.66,208.64Z"/><path class="cls-3" d="M673.55,214.32q-.09.18-.21.18s0-.05,0-.07l-.07-.07Z"/><path class="cls-3" d="M663.77,208.75a.38.38,0,0,1-.11-.11.61.61,0,0,0,.05-.12Z"/><path class="cls-3" d="M441.31,57.54c-3.21-.07-6.42-.19-9.63-.2-3.8,0-7.59,0-11.39.08-.61,0-1.3,0-1.46.88-.28,1.55-.69,3.07-1,4.62C416.58,70,415.34,77,414.06,84.1c-1.42,7.8-3,15.57-4.26,23.4-1.65,10.43-3.88,20.75-5.57,31.16-.59,3.69-1.52,7.32-1.82,11.05-.06.75-.25,1.55,1,1.54,6.95,0,13.91,0,20.86,0a1.26,1.26,0,0,0,1.43-1.21c.31-2.3.59-4.62.88-6.93.1-.27.22-.54.31-.81,1.21-3.51,1.28-7.23,2-10.84,1.38-7.28,2.59-14.6,4.06-21.86,1.13-5.6,1.83-11.28,3.41-16.79,2.27-7.88,7.42-12.34,15.51-13.34a47.55,47.55,0,0,1,6.65-.13c1.18,0,1.69-.29,2-1.55,1.83-6.94,3.12-14,4.5-21,.29-1.49-.22-1.6-1.4-1.78a20.22,20.22,0,0,0-11.41,1.86c-.71.37-1.49.53-2.21.93a22.94,22.94,0,0,0-9.09,9.33c-.24.44-.32,1.17-.87,1.4a3.41,3.41,0,0,0,.05-.78c0-.23,0-.45,0-.68a61.54,61.54,0,0,1,.87-7.42Z"/><path class="cls-3" d="M522.18,196.94a74,74,0,0,1-2,10.42c-.28,1.3-.62,2.59-.93,3.88-.51,2.22-1.07,4.42-1.52,6.65-.23,1.14-.61,1.59-1.93,1.52-4.15-.23-8.29-.15-12.22,1.6a16.48,16.48,0,0,0-9.39,10.45c-2.38,7.41-3.24,15.14-4.7,22.74-1.23,6.41-2.51,12.82-3.72,19.24-.71,3.78-1.39,7.57-1.94,11.38a2.1,2.1,0,0,1-2.41,2.1q-9.37,0-18.75,0c-1.21,0-1.5-.53-1.36-1.64.65-5,1.69-10,2.59-15,2.54-14.19,5-28.38,7.57-42.56,1.7-9.47,3.51-18.92,5.21-28.39.2-1.12.69-1.46,1.72-1.46,6.43,0,12.86,0,19.29,0,1.2,0,1.38.52,1.16,1.5-.24,1.14-.46,2.29-.69,3.43,0,2.12-.81,4.14-.9,6.25,0,.14,0,.28,0,.41.32-.15.41-.58.56-.86a23.58,23.58,0,0,1,3.9-5.09c4.21-4.39,9.19-7.24,15.36-7.76,1.4-.56,2.86-.29,4.3-.28C522.38,195.43,522.24,196.21,522.18,196.94Z"/><path class="cls-3" d="M394,57.46c3.33,0,6.66.06,10,0,1.39,0,1.68.39,1.42,1.72-1.49,7.61-3,15.23-4.35,22.86-1.93,10.68-3.78,21.38-5.68,32.06-1.41,7.93-2.71,15.87-4.33,23.76-.82,4-1.43,8-2.19,12a1.41,1.41,0,0,1-1.62,1.37q-10-.06-20,0c-1.48,0-1.7-.53-1.54-1.9,1.12-9.34,3.16-18.52,4.77-27.77,1.93-11,3.93-22.06,5.89-33.09,1.31-7.41,2.59-14.82,3.9-22.23.43-2.47.95-4.92,1.33-7.4.19-1.21,1-1.34,1.88-1.34,3.51,0,7,0,10.52,0Z"/><path class="cls-3" d="M382.92,46.82a3.76,3.76,0,0,0,1.2-3.1c.33-5.14,1.68-10.12,2.57-15.17a1.49,1.49,0,0,1,1.68-1.39c7.12,0,14.25,0,21.37,0,1.24,0,1.06.63,1,1.47-.76,5.79-2.47,11.41-3,17.23-.1,1-.8,1.09-1.47,1.14-1.16.1-2.33.09-3.5.09-5.49,0-11,0-16.47,0C385.26,47.05,384.29,46.92,382.92,46.82Z"/><path class="cls-3" d="M663.77,208.75a.38.38,0,0,1-.11-.11c-.17-.23-.08-.51-.11-.77.06.22.11.43.16.65Z"/><path class="cls-3" d="M551.14,200.32a.25.25,0,0,1-.19.13c-.07,0-.13,0-.19-.14h.38Z"/><path class="cls-3" d="M551.64,197.54a3.4,3.4,0,0,1-.18,1Z"/><line class="cls-3" x1="441.31" y1="57.54" x2="440.94" y2="59.62"/><path class="cls-3" d="M519.18,254.34l-.54.18-.45.16c.15-.26.31-.49.52-.51A.64.64,0,0,1,519.18,254.34Z"/><path class="cls-3" d="M545.9,249.8h0Z"/><polygon class="cls-3" points="565.56 233.33 565.55 233.34 565.55 233.33 565.56 233.33"/><path class="cls-3" d="M294.73,279.25a0,0,0,0,1,0,0v0Z"/><path class="cls-3" d="M519.18,254.34l-.54.18-.45.16c.15-.26.31-.49.52-.51A.64.64,0,0,1,519.18,254.34Z"/><path class="cls-3" d="M545.9,249.8h0Z"/><path class="cls-3" d="M580,276.77l-.22.21-.19.18c-.07-.23,0-.36.08-.4A.53.53,0,0,1,580,276.77Z"/><path class="cls-3" d="M658.11,215c-.39-3.7-1.47-7.31-4.17-10.17a19.32,19.32,0,0,0-7.18-6.25c-4.78-2.62-10-3.06-15.3-2.91a39.39,39.39,0,0,0-28.3,12.3c-6.65,6.88-10,15.52-12.68,24.45a110.39,110.39,0,0,0-3.38,15.19c-1.16,8-1.78,15.94.53,23.8s7.23,13.39,15.28,15.71c6.06,1.75,12.25,1.61,18.41.68a30.36,30.36,0,0,0,13-4.9,4.06,4.06,0,0,0,1.53-.82c8-5.33,12.58-13.12,15.73-21.94.49-1.36.05-1.61-1.17-1.61-5.85,0-11.7,0-17.54,0-.51,0-1.07-.12-1.48.36a34.86,34.86,0,0,1-3.12,6.52c-2.1,3.33-4.69,6.05-8.74,7-5.5,1.35-10.45-1.62-11.37-6.63-1.13-6.12.23-12.06.9-18.05a17.23,17.23,0,0,1,4.17-.38c13.15,0,26.29,0,39.43.08,2,0,2.77-.73,3.09-2.43.1-.52.24-1,.31-1.55.35-2.65.52-5.35,1.08-8A64.83,64.83,0,0,0,658.11,215Zm-44.82,14.48c1.12-1.94,1.47-4.17,2.31-6.21,1.62-3.93,3.57-7.56,7.38-9.92s7.47-2.81,11.2,0c2.68,2.66,3.4,5.95,3.2,9.59-.13,2.45-.68,4.84-1,7.26-.24,1.84-1.1,2.53-3,2.49-5.65-.12-11.31-.1-17-.08-3.33,0-3.33,0-3.15-3.14l-.25.47A.71.71,0,0,1,613.29,229.45Z"/><polygon class="cls-3" points="565.56 233.33 565.55 233.34 565.55 233.33 565.56 233.33"/><path class="cls-3" d="M580,276.77l-.22.21-.19.18c-.07-.23,0-.36.08-.4A.53.53,0,0,1,580,276.77Z"/><path class="cls-3" d="M551.14,200.32a.25.25,0,0,1-.19.13c-.07,0-.13,0-.19-.14h.38Z"/><path class="cls-3" d="M663.77,208.75a.38.38,0,0,1-.11-.11c-.17-.23-.08-.51-.11-.77.06.22.11.43.16.65Z"/><path class="cls-3" d="M673.55,214.32q-.09.18-.21.18a.31.31,0,0,1-.22-.11l.16,0Z"/><path class="cls-3" d="M673.55,214.32q-.09.18-.21.18a.31.31,0,0,1-.22-.11l.16,0Z"/><path class="cls-3" d="M396.64,170.88c-1.89,9.8-3.62,19.63-5.46,29.43-1.92,10.27-3.92,20.52-5.84,30.78a88.77,88.77,0,0,1-2.26,11A45.69,45.69,0,0,1,381,253.64a60.43,60.43,0,0,1-.79,6c-.94,4.08-1.64,8.21-2.34,12.34a5,5,0,0,1-.37,1c-.78,4.07-1.77,8.09-2.22,12.22-.13,1.27-.81,1.77-2.11,1.76q-8.76-.09-17.52-.05c-1.2,0-1.52-.21-1.32-1.6,2.26-15.29,5.51-30.4,8.05-45.64,1.6-9.61,3.5-19.17,5.26-28.75.06-.34.05-.69.08-1,1.35-4.73,1.71-9.67,3.37-14.5-1.17.59-4.63,7.83-5.91,12-3.41,8.44-6.71,16.94-10.27,25.32C349.76,244.74,345,257,339.74,269c-2.08,4.7-3.92,9.5-5.83,14.27-1.43,3.59-1.41,3.63-5.33,3.65s-8.07,0-12.1,0c-2.51,0-2.53-.11-2.55-2.53-.13-14.5-.05-29-.43-43.49-.36-13.38-.71-26.76-1-40.15,0-1.84-.27-3.67-.42-5.54-.18.08-.35.12-.35.17-.55,9.95-3.55,19.45-5.38,29.16-1.3,6.94-2.88,13.83-4.34,20.74-.08.34-.21.67-.32,1-1.15,6.72-2.71,13.36-4.22,20h0c-.87,4.34-1.53,8.72-2.79,13h0v0c-.37,2.17-.75,4.33-1.12,6.5-.16.94-.77,1.21-1.63,1.2-5.78,0-11.56,0-17.34-.09-1.94,0-2.1-.32-1.65-2.54,1.18-5.82,2.43-11.63,3.59-17.46,1.85-9.37,3.64-18.75,5.49-28.12.88-4.45,1.84-8.89,2.77-13.33s1.79-9,2.69-13.54c2-10.18,4.07-20.37,6.16-30.54.76-3.71,1.68-7.4,2.13-11.17.12-1,.52-1.42,1.57-1.42q15.69,0,31.38-.05c1.05,0,1.37.32,1.37,1.42,0,9.47,0,18.94,0,28.4,0,12.45.79,24.88.93,37.33,0,4.09.12,8.18.19,12.27a1.28,1.28,0,0,0,.25.81c.69-2.77,1.92-5.3,2.82-8,2.57-7.62,5.83-15,8.78-22.45,2.55-6.44,5-12.93,7.49-19.39q5.1-13,10.25-26c.08-.22.19-.43.28-.65,1.43-3.61,1.43-3.65,5.41-3.66,9.47,0,18.94,0,28.41,0C396.62,168.76,397,169.19,396.64,170.88Z"/><line class="cls-3" x1="441.31" y1="57.54" x2="440.94" y2="59.62"/><path class="cls-5" d="M31.94,33.82v1.61C31.94,34.89,31.91,34.36,31.94,33.82Z"/><path class="cls-6" d="M31.94,35.43V303.29q0-80.13,0-160.27Q31.93,89.23,31.94,35.43Z"/><path class="cls-6" d="M32.3,32.17a4.58,4.58,0,0,0-.36,1.65V33Z"/><path class="cls-7" d="M31.94,35.43V303.29q0-15.56,0-31.13,0-64.58,0-129.14Q31.93,89.23,31.94,35.43Z"/><path class="cls-7" d="M32.3,32.17l-.36,1.65V33Z"/><path class="cls-8" d="M31.94,35.43V303.29q0-80.13,0-160.27Q31.93,89.23,31.94,35.43Z"/><path class="cls-8" d="M32.3,32.17l-.36,1.65A4.58,4.58,0,0,1,32.3,32.17Z"/><path class="cls-3" d="M613,229.92a.71.71,0,0,1,.25-.47Z"/></g></g></svg>